<?xml version="1.0" encoding="utf-8"?>
<!-- Generator: Adobe Illustrator 16.0.0, SVG Export Plug-In . SVG Version: 6.00 Build 0)  -->
<!DOCTYPE svg PUBLIC "-//W3C//DTD SVG 1.1//EN" "http://www.w3.org/Graphics/SVG/1.1/DTD/svg11.dtd">
<svg version="1.1" id="Capa_1" xmlns="http://www.w3.org/2000/svg" xmlns:xlink="http://www.w3.org/1999/xlink" x="0px" y="0px"
	 width="500px" height="500px" viewBox="0 0 500 500" enable-background="new 0 0 500 500" xml:space="preserve">
<polygon fill="none" stroke="#83E8E8" stroke-width="1.8896" stroke-miterlimit="10" points="444.575,303.928 444.436,296.818 
	451.545,296.678 451.441,291.371 444.33,291.512 444.19,284.4 438.884,284.506 439.024,291.615 431.913,291.756 432.019,297.063 
	439.128,296.923 439.269,304.033 "/>
<polygon fill="none" stroke="#D96BE8" stroke-width="1.8896" stroke-miterlimit="10" points="391.028,459.302 382.238,456.646 
	384.895,447.856 378.334,445.875 375.679,454.664 366.889,452.008 364.906,458.568 373.696,461.225 371.041,470.014 
	377.601,471.996 380.257,463.207 389.046,465.862 "/>
<polygon fill="none" stroke="#6854E4" stroke-width="1.8896" stroke-miterlimit="10" points="440.374,492.411 437.576,485.873 
	444.114,483.074 442.026,478.194 435.488,480.993 432.689,474.455 427.811,476.543 430.608,483.081 424.07,485.879 426.158,490.76 
	432.696,487.961 435.495,494.499 "/>
<polygon fill="none" stroke="#D96BE8" stroke-width="1.8896" stroke-miterlimit="10" points="406.725,342.594 397.935,339.938 
	400.59,331.148 394.03,329.166 391.375,337.956 382.585,335.301 380.603,341.86 389.393,344.517 386.736,353.307 393.297,355.288 
	395.952,346.498 404.742,349.154 "/>
<g>
	
		<line fill="none" stroke="#83E8E8" stroke-width="1.8896" stroke-miterlimit="10" x1="312.221" y1="408.605" x2="324.729" y2="425.788"/>
	
		<line fill="none" stroke="#83E8E8" stroke-width="1.8896" stroke-miterlimit="10" x1="305.471" y1="413.52" x2="317.979" y2="430.702"/>
</g>
<g>
	<polyline fill="none" stroke="#F1CE4B" stroke-width="1.8896" stroke-miterlimit="10" points="354.571,394.612 362.614,398.392 
		370.661,394.612 378.704,398.392 386.754,394.612 394.803,398.392 	"/>
</g>
<g>
	<g>
		<polyline fill="none" stroke="#D96BE8" stroke-width="1.8896" stroke-miterlimit="10" points="440.09,415.308 450.509,419.087 
			460.931,415.308 471.35,419.087 481.776,415.308 492.202,419.087 		"/>
	</g>
	<g>
		<polyline fill="none" stroke="#6854E4" stroke-width="1.8896" stroke-miterlimit="10" points="440.09,404.178 450.509,407.957 
			460.931,404.178 471.35,407.957 481.776,404.178 492.202,407.957 		"/>
	</g>
</g>
<g>
	<circle fill="#F1CE4B" cx="430.511" cy="443.099" r="1.125"/>
	<circle fill="#F1CE4B" cx="437.96" cy="443.099" r="1.125"/>
	<circle fill="#F1CE4B" cx="445.408" cy="443.099" r="1.125"/>
	<circle fill="#F1CE4B" cx="452.857" cy="443.099" r="1.125"/>
	<circle fill="#F1CE4B" cx="460.306" cy="443.099" r="1.125"/>
	<circle fill="#F1CE4B" cx="467.755" cy="443.099" r="1.125"/>
	<circle fill="#F1CE4B" cx="475.203" cy="443.099" r="1.125"/>
	<circle fill="#F1CE4B" cx="482.652" cy="443.099" r="1.125"/>
	<circle fill="#F1CE4B" cx="490.101" cy="443.099" r="1.125"/>
	<circle fill="#F1CE4B" cx="434.284" cy="448.996" r="1.125"/>
	<circle fill="#F1CE4B" cx="441.733" cy="448.996" r="1.125"/>
	<circle fill="#F1CE4B" cx="449.182" cy="448.996" r="1.125"/>
	<circle fill="#F1CE4B" cx="456.631" cy="448.996" r="1.125"/>
	<circle fill="#F1CE4B" cx="464.08" cy="448.996" r="1.125"/>
	<circle fill="#F1CE4B" cx="471.528" cy="448.996" r="1.125"/>
	<circle fill="#F1CE4B" cx="478.978" cy="448.996" r="1.125"/>
	<circle fill="#F1CE4B" cx="486.426" cy="448.996" r="1.125"/>
	<circle fill="#F1CE4B" cx="493.875" cy="448.996" r="1.125"/>
</g>
<g>
	<circle fill="#6854E4" cx="253.647" cy="459.798" r="1.125"/>
	<circle fill="#6854E4" cx="261.096" cy="459.798" r="1.125"/>
	<circle fill="#6854E4" cx="268.545" cy="459.798" r="1.125"/>
	<circle fill="#6854E4" cx="275.994" cy="459.798" r="1.125"/>
	<circle fill="#6854E4" cx="283.442" cy="459.798" r="1.125"/>
	<circle fill="#6854E4" cx="290.892" cy="459.798" r="1.125"/>
	<circle fill="#6854E4" cx="298.34" cy="459.798" r="1.125"/>
	<circle fill="#6854E4" cx="305.789" cy="459.798" r="1.125"/>
	<circle fill="#6854E4" cx="313.237" cy="459.798" r="1.125"/>
	<circle fill="#6854E4" cx="257.421" cy="465.695" r="1.125"/>
	<circle fill="#6854E4" cx="264.87" cy="465.695" r="1.125"/>
	<circle fill="#6854E4" cx="272.318" cy="465.695" r="1.125"/>
	<circle fill="#6854E4" cx="279.768" cy="465.695" r="1.125"/>
	<circle fill="#6854E4" cx="287.216" cy="465.695" r="1.125"/>
	<circle fill="#6854E4" cx="294.665" cy="465.695" r="1.125"/>
	<circle fill="#6854E4" cx="302.114" cy="465.695" r="1.125"/>
	<circle fill="#6854E4" cx="309.563" cy="465.695" r="1.125"/>
	<circle fill="#6854E4" cx="317.012" cy="465.695" r="1.125"/>
</g>
<g>
	<g>
		<circle fill="#D96BE8" cx="445.043" cy="334.551" r="1.125"/>
		<circle fill="#D96BE8" cx="452.492" cy="334.551" r="1.125"/>
		<circle fill="#D96BE8" cx="459.941" cy="334.551" r="1.125"/>
	</g>
	<g>
		<circle fill="#D96BE8" cx="445.048" cy="340.181" r="1.125"/>
		<circle fill="#D96BE8" cx="452.492" cy="340.448" r="1.125"/>
		<circle fill="#D96BE8" cx="459.936" cy="340.715" r="1.125"/>
	</g>
</g>
</svg>
