<?xml version="1.0" encoding="utf-8"?>
<!-- Generator: Adobe Illustrator 16.0.0, SVG Export Plug-In . SVG Version: 6.00 Build 0)  -->
<!DOCTYPE svg PUBLIC "-//W3C//DTD SVG 1.1//EN" "http://www.w3.org/Graphics/SVG/1.1/DTD/svg11.dtd">
<svg version="1.1" id="Capa_1" xmlns="http://www.w3.org/2000/svg" xmlns:xlink="http://www.w3.org/1999/xlink" x="0px" y="0px"
	 width="500px" height="500px" viewBox="0 0 500 500" enable-background="new 0 0 500 500" xml:space="preserve">
<g>
	<g>
		<path fill="#FFFFFF" d="M411.779-6.83h-68.353H236.928H109.61H69.077c-35.542,0-64.465,28.892-64.465,64.45v377.938
			C4.611,471.083,33.534,500,69.077,500h36.002h289.082h36.009c35.526,0,64.441-28.917,64.441-64.442V57.62
			c0-35.558-28.915-64.45-64.441-64.45H411.779z"/>
		
			<path fill="none" stroke="#302D24" stroke-width="7.4414" stroke-linecap="round" stroke-linejoin="round" stroke-dasharray="14.9411,14.9411" d="
			M411.779-6.83h-68.353H236.928H109.61H69.077c-35.542,0-64.465,28.892-64.465,64.45v377.938C4.611,471.083,33.534,500,69.077,500
			h36.002h289.082h36.009c35.526,0,64.441-28.917,64.441-64.442V57.62c0-35.558-28.915-64.45-64.441-64.45H411.779z"/>
	</g>
	<g>
		
			<path fill="#FAF07B" stroke="#302D24" stroke-width="8.1309" stroke-linecap="round" stroke-linejoin="round" stroke-miterlimit="10" d="
			M457.763,57.62c0-16.932-13.709-30.625-30.602-30.625H66.021c-16.868,0-30.593,13.692-30.593,30.625v377.938
			c0,16.884,13.725,30.599,30.593,30.599h361.14c16.893,0,30.602-13.715,30.602-30.599V57.62z"/>
		
			<path fill="#FFFFFF" stroke="#302D24" stroke-width="8.1309" stroke-linecap="round" stroke-linejoin="round" stroke-miterlimit="10" d="
			M102.048,466.156V275.455c0-12.548,10.159-22.697,22.698-22.697h243.708c12.515,0,22.688,10.149,22.688,22.697v190.701H102.048z"
			/>
		<g>
			
				<line fill="none" stroke="#302D24" stroke-width="8.1309" stroke-linecap="round" stroke-linejoin="round" stroke-miterlimit="10" x1="139.896" y1="354.378" x2="353.304" y2="354.378"/>
			
				<line fill="none" stroke="#302D24" stroke-width="8.1309" stroke-linecap="round" stroke-linejoin="round" stroke-miterlimit="10" x1="139.896" y1="319.56" x2="353.304" y2="319.56"/>
			
				<line fill="none" stroke="#302D24" stroke-width="8.1309" stroke-linecap="round" stroke-linejoin="round" stroke-miterlimit="10" x1="139.896" y1="389.195" x2="353.304" y2="389.195"/>
			
				<line fill="none" stroke="#302D24" stroke-width="8.1309" stroke-linecap="round" stroke-linejoin="round" stroke-miterlimit="10" x1="139.896" y1="424.026" x2="353.304" y2="424.026"/>
		</g>
		<g>
			
				<rect x="56.626" y="424.026" fill="#FFFFFF" stroke="#302D24" stroke-width="8.1309" stroke-linecap="round" stroke-linejoin="round" stroke-miterlimit="10" width="27.826" height="19.925"/>
			
				<rect x="408.747" y="424.026" fill="#FFFFFF" stroke="#302D24" stroke-width="8.1309" stroke-linecap="round" stroke-linejoin="round" stroke-miterlimit="10" width="27.784" height="19.925"/>
		</g>
		<g>
			
				<rect x="233.881" y="26.995" fill="#FAF07B" stroke="#302D24" stroke-width="8.1309" stroke-linecap="round" stroke-linejoin="round" stroke-miterlimit="10" width="174.866" height="135.857"/>
			<g>
				<path fill="#C2C3C8" stroke="#302D24" stroke-width="8.1309" stroke-miterlimit="10" d="M353.304,39.881
					c0-7.127-5.796-12.886-12.908-12.886h-233.8c-7.137,0-12.901,5.759-12.901,12.886v134.833c0,7.111,5.765,12.892,12.901,12.892
					h233.8c7.112,0,12.908-5.781,12.908-12.892V39.881z"/>
				
					<rect x="130.47" y="51.717" fill="#FAF07B" stroke="#302D24" stroke-width="8.1309" stroke-linecap="round" stroke-linejoin="round" stroke-miterlimit="10" width="51.087" height="111.135"/>
			</g>
		</g>
	</g>
</g>
</svg>
