<?xml version="1.0" encoding="utf-8"?>
<!-- Generator: Adobe Illustrator 16.0.0, SVG Export Plug-In . SVG Version: 6.00 Build 0)  -->
<!DOCTYPE svg PUBLIC "-//W3C//DTD SVG 1.1//EN" "http://www.w3.org/Graphics/SVG/1.1/DTD/svg11.dtd">
<svg version="1.1" id="Capa_1" xmlns="http://www.w3.org/2000/svg" xmlns:xlink="http://www.w3.org/1999/xlink" x="0px" y="0px"
	 width="100px" height="100px" viewBox="0 0 100 100" enable-background="new 0 0 100 100" xml:space="preserve">
<g>
	<path fill="#92D8DD" stroke="#524570" stroke-width="0.9428" stroke-miterlimit="10" d="M100,29.208L87.2,100L2.517,84.688
		L17.831,0l69.456,12.56C91.142,17.515,96.042,23.966,100,29.208z"/>
	<path fill="#FFFFFF" stroke="#51446F" stroke-width="1.577" stroke-miterlimit="10" d="M72.572,91.015l-53.54-9.682
		c-2.936-0.529-4.883-3.338-4.353-6.272l5.823-32.197c0.53-2.935,3.339-4.883,6.273-4.352l53.541,9.683
		c2.933,0.53,4.881,3.338,4.352,6.273l-5.822,32.195C78.316,89.599,75.507,91.546,72.572,91.015z"/>
	<path fill="#F1ED43" stroke="#51446F" stroke-width="1.3172" stroke-miterlimit="10" d="M83.582,11.89l-3.271,18.083
		c-1.019,5.633-6.41,9.374-12.038,8.356L33.001,31.95c-5.627-1.018-9.368-6.41-8.349-12.042l3.27-18.083L83.582,11.89z"/>
	
		<rect x="63.475" y="12.004" transform="matrix(0.984 0.178 -0.178 0.984 5.2084 -11.8373)" fill="#51446F" stroke="#51446F" stroke-width="0.4124" stroke-miterlimit="10" width="10.175" height="22.198"/>
	
		<line fill="#51446F" stroke="#51446F" stroke-width="1.7563" stroke-miterlimit="10" x1="38.782" y1="3.789" x2="33.668" y2="32.07"/>
	<g>
		
			<line fill="#51446F" stroke="#51446F" stroke-width="1.7563" stroke-linecap="round" stroke-linejoin="round" stroke-miterlimit="10" x1="23.145" y1="51.484" x2="79.175" y2="61.615"/>
		
			<line fill="#51446F" stroke="#51446F" stroke-width="1.7563" stroke-linecap="round" stroke-linejoin="round" stroke-miterlimit="10" x1="20.528" y1="65.953" x2="76.558" y2="76.085"/>
	</g>
	<g>
		<g>
			<path fill="#F1ED43" d="M19.579,12.884c-3.03,16.755-6.06,33.511-9.09,50.267c-0.313,1.732,2.336,2.474,2.651,0.73
				c3.03-16.755,6.059-33.511,9.09-50.267C22.544,11.881,19.895,11.141,19.579,12.884L19.579,12.884z"/>
		</g>
	</g>
	<g>
		<g>
			<path fill="#F1ED43" d="M85.457,94.105c2.035-11.26,4.072-22.52,6.108-33.779c0.313-1.732-2.336-2.474-2.65-0.73
				c-2.037,11.26-4.073,22.52-6.108,33.779C82.493,95.107,85.143,95.849,85.457,94.105L85.457,94.105z"/>
		</g>
	</g>
	<g>
		<g>
			<path fill="#F1ED43" d="M85.482,17.902c-0.689,3.813-1.38,7.627-2.069,11.441c-0.313,1.733,2.336,2.474,2.65,0.73
				c0.689-3.813,1.38-7.627,2.069-11.441C88.446,16.899,85.797,16.159,85.482,17.902L85.482,17.902z"/>
		</g>
	</g>
</g>
</svg>
