<?xml version="1.0" encoding="utf-8"?>
<!-- Generator: Adobe Illustrator 16.0.0, SVG Export Plug-In . SVG Version: 6.00 Build 0)  -->
<!DOCTYPE svg PUBLIC "-//W3C//DTD SVG 1.1//EN" "http://www.w3.org/Graphics/SVG/1.1/DTD/svg11.dtd">
<svg version="1.1" id="Capa_1" xmlns="http://www.w3.org/2000/svg" xmlns:xlink="http://www.w3.org/1999/xlink" x="0px" y="0px"
	 width="50px" height="50px" viewBox="0 0 50 50" enable-background="new 0 0 50 50" xml:space="preserve">
<g>
	<path fill="#DDC62C" d="M23.459,0C10.504,0,0,10.503,0,23.459c0,5.652,2,10.837,5.33,14.888L2,50l11.896-5.121
		c2.921,1.307,6.155,2.039,9.563,2.039c12.955,0,23.459-10.504,23.459-23.459C46.918,10.503,36.414,0,23.459,0z M22.183,19.825
		h-7.182v2.016h5.904v3.258h-5.904v1.799h7.182v3.475H11.401v-14.04h10.782V19.825z M37.375,30.373h-3.042l-6.264-7.83v7.83h-3.6
		v-14.04h3.06l6.264,7.848v-7.848h3.582V30.373z"/>
</g>
</svg>
