<!--?xml version="1.0" encoding="utf-8"?-->
<!-- Generator: Adobe Illustrator 16.0.0, SVG Export Plug-In . SVG Version: 6.00 Build 0)  -->

<svg version="1.1" id="Capa_1" xmlns="http://www.w3.org/2000/svg" xmlns:xlink="http://www.w3.org/1999/xlink" x="0px" y="0px" width="500px" height="500px" viewBox="0 0 500 500" enable-background="new 0 0 500 500" xml:space="preserve" style="">
<g>
	<path fill="#FFFFFF" d="M489.578,167.329c-6.833-11.314-23.493-30.291-58.383-30.291c-4.067,0-8.347,0.257-12.723,0.773
		c-73.371,8.75-129.964,45.188-157.176,66.126c-1.051,0.817-2.097,1.662-3.112,2.579h-15.504c-1.393-1.289-2.825-2.521-4.29-3.653
		c-27.21-20.939-83.795-57.376-157.163-66.113c-4.375-0.515-8.657-0.788-12.721-0.788c-34.905,0-51.572,18.992-58.394,30.307
		c-20.095,33.271-6.402,78.316,4.837,99.686c3.355,6.372,6.896,12.503,10.566,18.348c-8.858,8.021-13.377,19.265-12.46,31.309
		c1.468,19.221,16.479,34.073,28.897,40.947c7.115,3.969,14.461,5.974,21.816,5.974c7.645,0,18.963-2.19,29.455-12.689
		c0.201-0.199,0.419-0.416,0.634-0.63c10.276,4.697,20.91,7.706,31.739,8.979c14.62,1.705,30.145,3.266,44.6,3.266
		c13.842,0,53.728,0,79.247-32.67c25.459,33.744,66.06,33.744,80.061,33.744c14.452,0,29.976-1.576,44.597-3.28
		c11.076-1.302,21.964-4.425,32.459-9.323c10.443,10.413,21.734,12.604,29.368,12.604c7.358,0,14.702-2.005,21.82-5.957
		c12.414-6.875,27.416-21.743,28.882-40.964c0.92-11.858-3.444-22.945-12.02-30.908c3.53-5.643,6.917-11.56,10.137-17.674
		C496.005,245.646,509.669,200.602,489.578,167.329z" class="QtMYSTDH_0"></path>
	
		<path fill="#FFFFFF" stroke="#3F3735" stroke-width="6.9335" stroke-linecap="round" stroke-linejoin="round" stroke-miterlimit="10" stroke-dasharray="10.4002,10.4002" d="
		M479.19,173.603c-6.729-11.157-20.507-24.42-47.995-24.42c-3.588,0-7.395,0.229-11.279,0.688
		c-70.496,8.393-124.991,43.498-151.201,63.693c-1.98,1.504-3.863,3.194-5.653,5.084h-25.448c-2.059-2.306-4.279-4.368-6.628-6.16
		c-26.21-20.194-80.714-55.299-151.185-63.692c-3.899-0.458-7.696-0.688-11.293-0.688c-27.485,0-41.285,13.277-48.009,24.42
		c-17.324,28.703-4.172,69.966,5.184,87.769c5.096,9.669,10.544,18.636,16.328,26.898c-2.385,1.561-4.651,3.122-6.667,4.698
		c-7.154,5.543-10.864,13.834-10.184,22.787c1.168,15.412,14.8,26.926,22.68,31.28c5.286,2.95,10.648,4.439,15.931,4.439
		c5.356,0,13.321-1.589,20.868-9.124c1.049-1.044,2.395-2.405,5.761-7.49c11.745,6.746,23.995,10.871,36.595,12.348
		c14.272,1.66,29.368,3.192,43.204,3.192c23.121,0,56.066-3.709,75.041-35.892c1.653-2.793,3.125-5.729,4.397-8.78
		c1.375,3.423,2.982,6.733,4.819,9.854c18.982,32.168,51.92,35.892,75.052,35.892c13.82,0,28.927-1.533,43.188-3.207
		c12.798-1.49,25.219-5.716,37.132-12.633c2.983,4.455,4.259,5.73,5.246,6.716c7.523,7.535,15.493,9.124,20.857,9.124l0,0
		c5.282,0,10.639-1.489,15.944-4.439c7.856-4.354,21.485-15.868,22.666-31.28c0.68-8.938-3.029-17.244-10.169-22.787
		c-1.883-1.448-3.975-2.908-6.177-4.354c5.604-8.063,10.889-16.813,15.809-26.182C483.391,243.556,496.528,202.292,479.19,173.603z" class="QtMYSTDH_1"></path>
	<g>
		<g>
			<path fill="#776FA8" d="M423.325,290.905c0,0,18.862,9.024,28.834,16.759c7.283,5.644-2.814,16.915-9.972,20.867
				c-6.019,3.337-9.692,1.99-13.022-1.333c-3.313-3.321-16.418-26.339-16.418-26.339L423.325,290.905z" class="QtMYSTDH_2"></path>
			<path fill="#776FA8" d="M76.372,290.905c0,0-18.863,9.024-28.831,16.759c-7.297,5.644,2.814,16.915,9.968,20.867
				c6.013,3.337,9.693,1.99,13.022-1.333c3.317-3.321,16.407-26.339,16.407-26.339L76.372,290.905z" class="QtMYSTDH_3"></path>
		</g>
		<g>
			<path fill="#776FA8" width="55.426" height="24.521" d="M222.256 238.571 L277.682 238.571 L277.682 263.092 L222.256 263.092 Z" class="QtMYSTDH_4"></path>
			<g>
				<path fill="#8980B3" d="M280.879,229.347c31.099-23.948,81.703-52.579,141.386-59.683c59.684-7.104,48.317,55.414,34.105,82.413
					c-14.205,27.013-43.348,70.354-85.988,75.322c-45.156,5.271-80.978,7.092-98.759-23.03
					C257.244,279.979,263.764,242.524,280.879,229.347z" class="QtMYSTDH_5"></path>
				<path fill="#302D24" d="M295.795,241.765c24.073-18.52,31.099-24.377,75.138-39.43c35.879-12.261,65.805,36.508,45.56,77.284
					c-8.668,17.433-29.035,37.096-52.847,37.096c-35.191,0-62.701,5.515-76.446-17.816
					C276.06,280.02,282.558,251.978,295.795,241.765z" class="QtMYSTDH_6"></path>
			</g>
			<g>
				<path fill="#8980B3" d="M218.821,228.273c-31.097-23.934-81.703-52.579-141.385-59.683
					c-59.694-7.104-48.328,55.429-34.117,82.413c14.214,27.013,43.347,70.366,85.989,75.322
					c45.156,5.271,80.987,7.104,98.756-23.017C242.458,278.917,235.935,241.45,218.821,228.273z" class="QtMYSTDH_7"></path>
				<path fill="#302D24" d="M203.905,240.72c-24.076-18.534-31.102-24.392-75.133-39.446
					c-35.881-12.259-65.812,36.509-45.567,77.271c8.659,17.431,29.04,37.111,52.851,37.111c35.191,0,62.701,5.499,76.448-17.818
					C223.642,278.945,217.143,250.902,203.905,240.72z" class="QtMYSTDH_8"></path>
			</g>
		</g>
	</g>
	
		<path fill="none" stroke="#3F3735" stroke-width="8.6669" stroke-linecap="round" stroke-linejoin="round" stroke-miterlimit="10" d="
		M422.265,169.665c-59.683,7.104-110.287,35.735-141.386,59.683c-3.08,2.363-5.798,5.514-8.136,9.224h-45.146
		c-2.467-4.168-5.413-7.706-8.776-10.298c-31.097-23.934-81.703-52.579-141.385-59.683c-59.694-7.104-48.328,55.429-34.117,82.413
		c6.514,12.347,16.124,28.102,28.728,42.038c-6.181,3.149-17.517,9.208-24.506,14.623c-7.297,5.644,2.814,16.915,9.968,20.867
		c6.013,3.337,9.693,1.99,13.022-1.333c2.396-2.42,9.945-15.152,13.915-21.984c12.701,10.871,27.689,19.106,44.862,21.111
		c45.156,5.271,80.987,7.104,98.756-23.017c6.939-11.758,9.005-26.567,7.368-40.217h28.954c-1.872,13.95,0.119,29.217,7.237,41.277
		c17.781,30.122,53.603,28.302,98.759,23.03c17.372-2.034,32.489-10.427,45.288-21.47c4.056,6.962,11.174,18.936,13.495,21.269
		c3.33,3.323,7.004,4.67,13.022,1.333c7.157-3.952,17.255-15.224,9.972-20.867c-6.749-5.229-17.555-11.059-23.851-14.267
		c12.271-13.778,21.677-29.189,28.062-41.32C470.582,225.079,481.948,162.561,422.265,169.665z" class="QtMYSTDH_9"></path>
</g>
<style data-made-with="vivus-instant">.QtMYSTDH_0{stroke-dasharray:1405 1407;stroke-dashoffset:1406;animation:QtMYSTDH_draw 3000ms linear 0ms forwards;}.QtMYSTDH_1{stroke-dasharray:1362 1364;stroke-dashoffset:1363;animation:QtMYSTDH_draw 3000ms linear 0ms forwards;}.QtMYSTDH_2{stroke-dasharray:121 123;stroke-dashoffset:122;animation:QtMYSTDH_draw 3000ms linear 0ms forwards;}.QtMYSTDH_3{stroke-dasharray:121 123;stroke-dashoffset:122;animation:QtMYSTDH_draw 3000ms linear 0ms forwards;}.QtMYSTDH_4{stroke-dasharray:160 162;stroke-dashoffset:161;animation:QtMYSTDH_draw 3000ms linear 0ms forwards;}.QtMYSTDH_5{stroke-dasharray:579 581;stroke-dashoffset:580;animation:QtMYSTDH_draw 3000ms linear 0ms forwards;}.QtMYSTDH_6{stroke-dasharray:411 413;stroke-dashoffset:412;animation:QtMYSTDH_draw 3000ms linear 0ms forwards;}.QtMYSTDH_7{stroke-dasharray:579 581;stroke-dashoffset:580;animation:QtMYSTDH_draw 3000ms linear 0ms forwards;}.QtMYSTDH_8{stroke-dasharray:411 413;stroke-dashoffset:412;animation:QtMYSTDH_draw 3000ms linear 0ms forwards;}.QtMYSTDH_9{stroke-dasharray:1335 1337;stroke-dashoffset:1336;animation:QtMYSTDH_draw 3000ms linear 0ms forwards;}@keyframes QtMYSTDH_draw{100%{stroke-dashoffset:0;}}@keyframes QtMYSTDH_fade{0%{stroke-opacity:1;}94.44444444444444%{stroke-opacity:1;}100%{stroke-opacity:0;}}</style></svg>
