<?xml version="1.0" encoding="utf-8"?>
<!-- Generator: Adobe Illustrator 16.0.0, SVG Export Plug-In . SVG Version: 6.00 Build 0)  -->
<!DOCTYPE svg PUBLIC "-//W3C//DTD SVG 1.1//EN" "http://www.w3.org/Graphics/SVG/1.1/DTD/svg11.dtd">
<svg version="1.1" id="Capa_1" xmlns="http://www.w3.org/2000/svg" xmlns:xlink="http://www.w3.org/1999/xlink" x="0px" y="0px"
	 width="50px" height="50px" viewBox="0 0 50 50" enable-background="new 0 0 50 50" xml:space="preserve">
<g>
	<path fill-rule="evenodd" clip-rule="evenodd" fill="#DDC62C" d="M0,47.66C0,31.644,0,15.631,0-0.386c16.666,0,33.334,0,50,0
		c0,16.017,0,32.029,0,48.046c-1.104,1.6-2.645,1.99-4.533,1.983c-13.646-0.059-27.29-0.059-40.936,0
		C2.645,49.65,1.094,49.277,0,47.66z M32.044,37.78c-0.197-0.742-0.34-1.368-0.528-1.979c-1.823-5.897-3.641-11.794-5.49-17.685
		c-0.58-1.849-0.738-4.424-2.022-5.304c-1.393-0.952-3.878-0.261-5.881-0.383c-1.13-0.069-1.566,0.387-1.874,1.44
		c-1.328,4.555-2.757,9.077-4.143,13.614c-1.04,3.404-2.071,6.813-3.16,10.395c1.641,0,3.068-0.069,4.488,0.021
		c1.112,0.068,1.592-0.322,1.874-1.422c0.447-1.729,0.649-4.077,1.836-4.913c1.232-0.865,3.515-0.163,5.328-0.29
		c1.237-0.086,1.718,0.435,1.997,1.557c0.419,1.682,0.989,3.324,1.485,4.949C28.063,37.78,29.987,37.78,32.044,37.78z M35.297,19.56
		c0,6.114,0,12.168,0,18.155c1.936,0,3.712,0,5.514,0c0-6.118,0-12.073,0-18.155C38.926,19.56,37.146,19.56,35.297,19.56z
		 M41.017,14.18c-0.051-1.628-1.429-2.862-3.122-2.793c-1.736,0.068-2.911,1.331-2.829,3.035c0.075,1.563,1.365,2.739,2.976,2.709
		C39.76,17.104,41.067,15.805,41.017,14.18z"/>
	<path fill-rule="evenodd" clip-rule="evenodd" fill="#DDC62C" d="M20.441,17.516c0.865,3.086,1.729,6.173,2.63,9.385
		c-1.871,0-3.593,0-5.434,0c0.832-3.198,1.641-6.31,2.449-9.421C20.205,17.49,20.324,17.505,20.441,17.516z"/>
</g>
</svg>
