<?xml version="1.0" encoding="utf-8"?>
<!-- Generator: Adobe Illustrator 16.0.0, SVG Export Plug-In . SVG Version: 6.00 Build 0)  -->
<!DOCTYPE svg PUBLIC "-//W3C//DTD SVG 1.1//EN" "http://www.w3.org/Graphics/SVG/1.1/DTD/svg11.dtd">
<svg version="1.1" id="Capa_1" xmlns="http://www.w3.org/2000/svg" xmlns:xlink="http://www.w3.org/1999/xlink" x="0px" y="0px"
	 width="100px" height="100px" viewBox="0 0 100 100" enable-background="new 0 0 100 100" xml:space="preserve">
<g>
	<g>
		<g>
			<path fill="#7D61BD" d="M51.26,84.087c0.535,3.428,0.887,17.941,7.236,15.674c5.15-1.766,1.477-12.998,0.842-17.05"/>
			<g>
				<path fill="#524570" d="M50.721,84.235c0.536,3.766,0.349,16.33,6.27,16.314c8.244-0.021,3.621-13.703,2.886-17.987
					c-0.122-0.709-1.199-0.407-1.078,0.297c0.449,2.613,4.579,19.942-2.789,16.246c-2.469-1.238-2.975-5.807-3.374-8.188
					c-0.389-2.313-0.507-4.659-0.837-6.979C51.697,83.228,50.621,83.531,50.721,84.235L50.721,84.235z"/>
			</g>
		</g>
		<g>
			<g>
				<g>
					<path fill="#524570" d="M52.782,93.261c2.611-0.409,5.222-0.817,7.833-1.225c0.71-0.111,0.408-1.188-0.297-1.078
						c-2.611,0.408-5.223,0.815-7.833,1.225C51.775,92.294,52.077,93.371,52.782,93.261L52.782,93.261z"/>
				</g>
			</g>
			<g>
				<g>
					<path fill="#524570" d="M53.18,95.956c2.654-0.174,5.261-0.676,7.883-1.094c0.71-0.113,0.408-1.19-0.297-1.078
						c-2.524,0.403-5.031,0.887-7.586,1.055C52.465,94.886,52.46,96.004,53.18,95.956L53.18,95.956z"/>
				</g>
			</g>
		</g>
	</g>
	<g>
		<g>
			<path fill="#FF58BB" d="M38.437,39.776c2.331,10.319,6.434,28.787,12.181,48.639c0.28,0.959,10.089-0.763,10.516-1.322
				c1.063-1.396-4.052-45.572-4.473-50.294"/>
			<g>
				<path fill="#524570" d="M37.931,39.916c3.681,16.311,7.56,32.564,12.181,48.639c0.518,1.803,11.552,0.762,11.686-2.455
					c0.351-8.416-1.231-17.205-2.09-25.554c-0.814-7.917-1.79-15.822-2.522-23.748c-0.062-0.668-1.111-0.674-1.049,0
					c1.351,14.626,3.319,29.191,4.379,43.846c0.066,0.913,0.884,5.851-0.147,6.219c-1.888,0.674-4.083,0.884-6.051,1.137
					c-0.845,0.109-1.689,0.156-2.54,0.175c-1.364,0.03-2.524-6.519-2.796-7.5c-3.751-13.578-6.938-27.3-10.039-41.038
					C38.794,38.977,37.782,39.257,37.931,39.916L37.931,39.916z"/>
			</g>
		</g>
		<g>
			<path fill="#7D61BD" d="M49.162,47.317c-3.105,0.353-2.452,3.674-2.094,5.988c0.266,1.67,0.554,4.389,2.278,5.307
				C54.477,61.101,52.912,46.729,49.162,47.317"/>
			<g>
				<path fill="#524570" d="M49.014,46.779c-3.947,0.732-2.731,5.375-2.233,8.218c0.323,1.847,2.606,6.305,5.076,3.928
					c1.771-1.704,1.428-4.921,1.05-7.095c-0.316-1.823-1.317-5.267-3.744-5.071c-0.713,0.057-0.719,1.175,0,1.117
					c2.984-0.24,3.065,6.862,2.711,8.635c-0.136,0.679-0.427,1.531-1.136,1.793c-1.616,0.597-2.479-1.925-2.764-3.046
					c-0.557-2.188-1.782-6.823,1.337-7.401C50.019,47.725,49.718,46.648,49.014,46.779L49.014,46.779z"/>
			</g>
		</g>
	</g>
	<g>
		<g>
			<path fill="#7D61BD" d="M39.016,1.104c-10.934,3.135-12.39,14.236-9.885,21.375c3.108,8.164,8.288,10.881,19.074,9.188
				C70.494,28.172,59.251-6.57,39.016,1.104"/>
			<g>
				<path fill="#524570" d="M38.868,0.565c-9.738,3.196-14.092,13.971-9.761,23.324c4.547,9.819,16.778,11.282,25.683,5.987
					c7.05-4.193,7.267-13.535,4.361-20.283C55.652,1.464,47.162-2.324,38.868,0.565C38.191,0.8,38.482,1.88,39.165,1.642
					c7.146-2.488,13.779,0.036,17.852,6.321c3.643,5.62,4.11,13.649-0.372,18.909c-5.781,6.783-19.893,6.628-25.005-0.597
					c-6.179-8.732-2.716-21.272,7.525-24.633C39.846,1.418,39.554,0.339,38.868,0.565L38.868,0.565z"/>
			</g>
		</g>
		<g>
			<g>
				<g>
					<path fill="#524570" d="M41.029,0.996c1.859,10.102,3.527,20.237,4.844,30.425c0.091,0.704,1.209,0.713,1.117,0
						c-1.33-10.287-3.006-20.521-4.884-30.722C41.977-0.009,40.899,0.292,41.029,0.996L41.029,0.996z"/>
				</g>
			</g>
			<g>
				<g>
					<path fill="#524570" d="M38.108,1.431c-0.476,10.482,1.114,20.772,4.785,30.606c0.25,0.669,1.33,0.379,1.077-0.297
						c-3.634-9.736-5.216-19.928-4.745-30.31C39.258,0.71,38.14,0.713,38.108,1.431L38.108,1.431z"/>
				</g>
			</g>
			<g>
				<g>
					<path fill="#524570" d="M34.929,2.705c-1.639,9.467-0.24,20.699,4.665,29.067c0.364,0.621,1.33,0.059,0.965-0.564
						c-4.753-8.111-6.142-19.018-4.552-28.206C36.128,2.297,35.052,1.996,34.929,2.705L34.929,2.705z"/>
				</g>
			</g>
			<g>
				<g>
					<path fill="#524570" d="M31.311,5.64c-1.595,9.436-0.971,18.12,5.149,25.827c0.448,0.564,1.233-0.232,0.79-0.79
						c-5.846-7.362-6.377-15.775-4.862-24.74C32.507,5.232,31.431,4.931,31.311,5.64L31.311,5.64z"/>
				</g>
			</g>
			<g>
				<g>
					<path fill="#524570" d="M44.222,0.628c3.618,9.739,5.229,19.926,4.738,30.308c-0.034,0.721,1.083,0.717,1.117,0
						c0.496-10.483-1.123-20.768-4.778-30.605C45.05-0.338,43.97-0.048,44.222,0.628L44.222,0.628z"/>
				</g>
			</g>
			<g>
				<g>
					<path fill="#524570" d="M47.755,1.139c4.318,8.253,6.35,19.077,4.298,28.249c-0.156,0.702,0.921,1,1.078,0.297
						c2.118-9.471,0.048-20.586-4.412-29.11C48.386-0.064,47.422,0.501,47.755,1.139L47.755,1.139z"/>
				</g>
			</g>
			<g>
				<g>
					<path fill="#524570" d="M52.106,2.83c4.22,8.178,6.222,16.295,2.889,25.175c-0.253,0.676,0.827,0.965,1.078,0.297
						c3.435-9.152,1.351-17.601-3.002-26.037C52.741,1.625,51.776,2.19,52.106,2.83L52.106,2.83z"/>
				</g>
			</g>
			<g>
				<g>
					<path fill="#524570" d="M28.74,15.253c9.773-2.08,19.546-3.885,29.497-4.875c0.71-0.07,0.717-1.188,0-1.117
						c-10.047,1-19.924,2.815-29.794,4.916C27.739,14.326,28.038,15.403,28.74,15.253L28.74,15.253z"/>
				</g>
			</g>
			<g>
				<g>
					<path fill="#524570" d="M29.163,12.028c9.227-1.914,18.282-4.063,27.757-4.209c0.72-0.011,0.721-1.128,0-1.117
						c-9.575,0.146-18.723,2.313-28.054,4.249C28.16,11.097,28.459,12.174,29.163,12.028L29.163,12.028z"/>
				</g>
			</g>
			<g>
				<g>
					<path fill="#524570" d="M31.137,8.692c7.459-1.816,15.08-2.885,22.708-3.684c0.709-0.074,0.717-1.192,0-1.117
						C46.119,4.7,38.396,5.775,30.84,7.615C30.14,7.785,30.438,8.862,31.137,8.692L31.137,8.692z"/>
				</g>
			</g>
			<g>
				<g>
					<path fill="#524570" d="M32.839,5.529c6.07-1.6,12.317-2.476,18.574-2.905c0.715-0.049,0.72-1.167,0-1.117
						c-6.353,0.436-12.708,1.32-18.871,2.945C31.846,4.635,32.142,5.713,32.839,5.529L32.839,5.529z"/>
				</g>
			</g>
			<g>
				<g>
					<path fill="#524570" d="M30.513,25.869c10.041-0.746,19.875-2.542,29.686-4.767c0.703-0.159,0.404-1.236-0.297-1.077
						c-9.71,2.203-19.448,3.989-29.389,4.727C29.799,24.805,29.793,25.923,30.513,25.869L30.513,25.869z"/>
				</g>
			</g>
			<g>
				<g>
					<path fill="#524570" d="M32.199,28.237c9.4,0.087,18.394-1.732,27.373-4.405c0.689-0.205,0.396-1.284-0.297-1.077
						c-8.868,2.64-17.785,4.452-27.076,4.365C31.478,27.113,31.479,28.231,32.199,28.237L32.199,28.237z"/>
				</g>
			</g>
		</g>
		<g>
			<path fill="#FACB54" d="M26.528,17.927c-0.496-0.438,2.323-0.717,31.538-5.337c3.332-0.528,3.304-0.714,4.081,4.29
				c0.188,1.188-0.992,0.942-27.723,5.207C25.822,23.46,27.374,23.551,26.528,17.927"/>
			<g>
				<path fill="#524570" d="M26.923,17.532c0.582,0.606-0.553,0.806,0.321,0.575c0.503-0.133,1.022-0.219,1.534-0.313
					c2.12-0.39,4.254-0.71,6.383-1.046c4.239-0.67,8.48-1.328,12.72-1.993c2.809-0.44,5.616-0.883,8.424-1.326
					c3.829-0.604,4.796-0.312,5.294,3.534c0.067,0.518-8.173,1.596-8.832,1.698c-4.92,0.761-9.841,1.518-14.759,2.293
					c-3,0.473-6.026,1.116-9.057,1.35c-1.995,0.154-1.713-3.255-1.885-4.526c-0.096-0.711-1.172-0.407-1.077,0.297
					c0.407,3.015,0.022,5.573,3.691,5.29c7.468-0.577,14.994-2.334,22.403-3.475c1.287-0.198,11.039-0.395,10.603-3.159
					c-0.83-5.257-1.685-5.167-6.678-4.379c-7.317,1.156-14.639,2.291-21.956,3.447c-0.345,0.055-9.403,0.979-7.919,2.523
					C26.633,18.842,27.422,18.051,26.923,17.532L26.923,17.532z"/>
			</g>
		</g>
	</g>
	<g>
		<g>
			<path fill="#FACB54" d="M38.343,42.861c-1.493-3.917-2.171-5.95-4.926-11.645c8.358-1.461,17.148-2.076,25.904-4.401
				c-0.412,5.285-1.715,12.716-1.715,12.716c-7.058,2.369-13.715,3.083-18.752,3.248"/>
			<g>
				<path fill="#524570" d="M38.881,42.713c-0.653-1.723-1.302-3.446-1.99-5.156c-0.423-1.053-3.209-5.822-1.528-6.103
					c6.78-1.136,13.612-1.817,20.354-3.201c1.002-0.568,1.977-0.594,2.926-0.078c-0.163,1.845-0.426,3.689-0.681,5.522
					c-0.257,1.85-0.555,3.695-0.868,5.536c-0.107,0.629-7.292,1.769-8.161,1.938c-3.319,0.647-6.705,0.909-10.078,1.048
					c-0.718,0.029-0.721,1.147,0,1.117c6.463-0.267,12.728-1.304,18.9-3.268c0.174-0.055,0.357-0.198,0.391-0.39
					c0.738-4.264,1.354-8.554,1.734-12.865c0.033-0.373-0.38-0.621-0.707-0.539c-8.522,2.147-17.255,2.952-25.904,4.401
					c-0.383,0.064-0.475,0.526-0.334,0.821c1.804,3.773,3.387,7.603,4.87,11.511C38.057,43.677,39.138,43.388,38.881,42.713
					L38.881,42.713z"/>
			</g>
		</g>
		<g>
			<g>
				<g>
					<path fill="#524570" d="M35.277,35.17c8.054-0.07,15.803-1.562,23.551-3.677c0.694-0.189,0.399-1.268-0.297-1.077
						c-7.645,2.087-15.3,3.568-23.254,3.637C34.557,34.059,34.557,35.176,35.277,35.17L35.277,35.17z"/>
				</g>
			</g>
			<g>
				<g>
					<path fill="#524570" d="M36.776,38.095c7.382,0.038,14.443-1.346,21.518-3.358c0.692-0.197,0.397-1.275-0.297-1.077
						c-6.967,1.981-13.948,3.355-21.221,3.318C36.055,36.974,36.056,38.092,36.776,38.095L36.776,38.095z"/>
				</g>
			</g>
		</g>
	</g>
</g>
</svg>
