<?xml version="1.0" encoding="utf-8"?>
<!-- Generator: Adobe Illustrator 16.0.0, SVG Export Plug-In . SVG Version: 6.00 Build 0)  -->
<!DOCTYPE svg PUBLIC "-//W3C//DTD SVG 1.1//EN" "http://www.w3.org/Graphics/SVG/1.1/DTD/svg11.dtd">
<svg version="1.1" id="Capa_1" xmlns="http://www.w3.org/2000/svg" xmlns:xlink="http://www.w3.org/1999/xlink" x="0px" y="0px"
	 width="50px" height="50px" viewBox="0 0 50 50" enable-background="new 0 0 50 50" xml:space="preserve">
<path fill-rule="evenodd" clip-rule="evenodd" fill="#DDC62C" d="M0.167,50c0-16.611,0-33.222,0-49.833c16.611,0,33.222,0,49.833,0
	C50,16.778,50,33.389,50,50C33.389,50,16.778,50,0.167,50z M14.546,27.866c2.335-0.282,4.48-0.358,6.54-0.826
	c4.443-1.009,7.085-4.479,6.978-8.824c-0.107-4.293-2.602-7.473-7.229-8.019c-4.059-0.477-8.219-0.099-12.369-0.099
	c0,9.25,0,18.168,0,27.148c2.037,0,3.955,0,6.079,0C14.546,33.978,14.546,30.829,14.546,27.866z M29.409,32.33
	c-0.251,0.961-0.62,2.009-0.76,3.089c-0.056,0.418,0.311,1.194,0.65,1.313c3.865,1.334,7.784,1.686,11.441-0.501
	c3.468-2.076,3.655-6.962,0.383-9.354c-1.386-1.015-3.131-1.522-4.614-2.428c-0.669-0.409-1.091-1.22-1.623-1.85
	c0.782-0.446,1.567-1.26,2.351-1.26c1.372,0,2.743,0.501,4.297,0.829c0.33-1.288,0.676-2.619,1.042-4.041
	c-3.458-1.215-6.721-1.724-9.995-0.178c-2.288,1.084-3.629,2.872-3.653,5.493c-0.02,2.539,1.504,4.04,3.559,5.116
	c1.088,0.566,2.333,0.859,3.354,1.514c0.662,0.422,1.048,1.275,1.556,1.937c-0.703,0.449-1.428,1.306-2.104,1.268
	C33.392,33.174,31.512,32.696,29.409,32.33z"/>
<path fill-rule="evenodd" clip-rule="evenodd" fill="#DDC62C" d="M14.667,14.639c2.476-0.21,4.881-0.695,6.512,1.581
	c1.024,1.429,1.063,3.09,0.052,4.533c-1.602,2.291-4.012,2.193-6.564,1.927C14.667,20.028,14.667,17.427,14.667,14.639z"/>
</svg>
