<?xml version="1.0" encoding="utf-8"?>
<!-- Generator: Adobe Illustrator 16.0.0, SVG Export Plug-In . SVG Version: 6.00 Build 0)  -->
<!DOCTYPE svg PUBLIC "-//W3C//DTD SVG 1.1//EN" "http://www.w3.org/Graphics/SVG/1.1/DTD/svg11.dtd">
<svg version="1.1" id="Capa_1" xmlns="http://www.w3.org/2000/svg" xmlns:xlink="http://www.w3.org/1999/xlink" x="0px" y="0px"
	 width="50px" height="50px" viewBox="0 0 50 50" enable-background="new 0 0 50 50" xml:space="preserve">
<g>
	<path fill="#DDC62C" d="M23.459,0C10.504,0,0,10.503,0,23.459c0,5.652,2,10.837,5.33,14.888L2,50l11.896-5.121
		c2.921,1.307,6.155,2.039,9.563,2.039c12.955,0,23.459-10.504,23.459-23.459C46.918,10.503,36.414,0,23.459,0z M23.92,23.821
		c-0.222,0.66-0.561,1.239-1.017,1.737c-0.457,0.499-1.029,0.894-1.719,1.188s-1.503,0.441-2.439,0.441h-2.592v3.186h-3.6v-14.04
		h6.192c0.936,0,1.749,0.147,2.439,0.441c0.69,0.294,1.263,0.69,1.719,1.188c0.456,0.498,0.794,1.071,1.017,1.719
		s0.333,1.326,0.333,2.034C24.253,22.459,24.143,23.161,23.92,23.821z M37.663,19.825h-4.374v10.548h-3.6V19.825h-4.375v-3.492
		h12.348V19.825z"/>
	<path fill="#DDC62C" d="M20.149,20.248c-0.168-0.198-0.384-0.354-0.648-0.468c-0.264-0.114-0.582-0.171-0.954-0.171h-2.394v4.302
		h2.394c0.756,0,1.29-0.207,1.602-0.621s0.468-0.933,0.468-1.557c0-0.276-0.036-0.542-0.108-0.801
		C20.438,20.674,20.317,20.446,20.149,20.248z"/>
</g>
</svg>
