<?xml version="1.0" encoding="utf-8"?>
<!-- Generator: Adobe Illustrator 16.0.0, SVG Export Plug-In . SVG Version: 6.00 Build 0)  -->
<!DOCTYPE svg PUBLIC "-//W3C//DTD SVG 1.1//EN" "http://www.w3.org/Graphics/SVG/1.1/DTD/svg11.dtd">
<svg version="1.1" id="Capa_1" xmlns="http://www.w3.org/2000/svg" xmlns:xlink="http://www.w3.org/1999/xlink" x="0px" y="0px"
	 width="500px" height="500px" viewBox="0 0 500 500" enable-background="new 0 0 500 500" xml:space="preserve">
<g>
	<path fill="#FFFFFF" d="M32.375,393.273h142.949c17.77,0,32.241-14.455,32.241-32.24c0-31.391,22.917-42.536,42.547-42.536
		c19.623,0,42.547,11.146,42.547,42.536c0,17.785,14.47,32.24,32.233,32.24h143.001c17.776,0,32.231-14.455,32.231-32.24
		c0-0.518-0.01-1.052-0.031-1.584c-0.386-76.029-27.647-140.281-78.859-185.813c-45.414-40.348-106.174-62.581-171.123-62.581
		c-64.946,0-125.728,22.233-171.126,62.581C27.39,219.499,0.127,284.312,0.127,361.033C0.127,378.818,14.596,393.273,32.375,393.273
		z"/>
	
		<path fill="#FFFFFF" stroke="#3F3735" stroke-width="6.9708" stroke-linecap="round" stroke-linejoin="round" stroke-miterlimit="10" stroke-dasharray="10.4562,10.4562" d="
		M32.375,381.092h142.949c11.055,0,20.044-8.971,20.044-20.059c0-37.8,27.493-54.732,54.744-54.732
		c27.248,0,54.747,16.933,54.747,54.732c0,11.088,8.972,20.059,20.034,20.059h142.96c0,0,0.025,0,0.041,0
		c11.061,0,20.032-8.971,20.032-20.059c0-0.389-0.014-0.819-0.025-1.209c-0.301-72.633-26.136-133.831-74.783-177.059
		c-43.157-38.375-101.054-59.5-163.005-59.5c-61.958,0-119.852,21.124-163.007,59.5c-48.927,43.486-74.788,105.132-74.788,178.268
		C12.317,372.121,21.299,381.092,32.375,381.092z"/>
	<g>
		<g>
			<path fill="#C65C89" d="M439.262,361.033c0-252.181-378.307-252.181-378.307,0c-9.529,0-19.051,0-28.58,0
				c0-290.312,435.478-290.312,435.478,0C458.325,361.033,448.796,361.033,439.262,361.033z"/>
		</g>
		<g>
			<path fill="#E1B3C7" d="M410.674,361.033c0-214.065-321.125-214.065-321.125,0c-9.533,0-19.061,0-28.594,0
				c0-252.181,378.307-252.181,378.307,0C429.734,361.033,420.201,361.033,410.674,361.033z"/>
		</g>
		<g>
			<path fill="#EFCD34" d="M382.079,361.033c0-175.949-263.939-175.949-263.939,0c-9.528,0-19.058,0-28.59,0
				c0-214.065,321.125-214.065,321.125,0C401.14,361.033,391.608,361.033,382.079,361.033z"/>
		</g>
		<g>
			<path fill="#78B4BC" d="M353.488,361.033c0-137.819-206.754-137.819-206.754,0c-9.533,0-19.062,0-28.595,0
				c0-175.949,263.939-175.949,263.939,0C372.55,361.033,363.018,361.033,353.488,361.033z"/>
		</g>
		<g>
			<path fill="#8980B3" d="M324.894,361.033c0-99.718-149.569-99.718-149.569,0c-9.529,0-19.058,0-28.59,0
				c0-137.819,206.754-137.819,206.754,0C343.956,361.033,334.438,361.033,324.894,361.033z"/>
		</g>
	</g>
	
		<path fill="none" stroke="#3F3735" stroke-width="8.7135" stroke-linecap="round" stroke-linejoin="round" stroke-miterlimit="10" d="
		M89.549,361.033c9.533,0,19.062,0,28.59,0c9.533,0,19.062,0,28.595,0c9.532,0,19.061,0,28.59,0c0-99.718,149.569-99.718,149.569,0
		c9.544,0,19.063,0,28.595,0c9.529,0,19.062,0,28.591,0s19.061,0,28.595,0c9.527,0,19.061,0,28.588,0c9.534,0,19.063,0,28.592,0
		c0-290.312-435.478-290.312-435.478,0c9.528,0,19.051,0,28.58,0C70.488,361.033,80.017,361.033,89.549,361.033z"/>
</g>
</svg>
