<?xml version="1.0" encoding="utf-8"?>
<!-- Generator: Adobe Illustrator 16.0.0, SVG Export Plug-In . SVG Version: 6.00 Build 0)  -->
<!DOCTYPE svg PUBLIC "-//W3C//DTD SVG 1.1//EN" "http://www.w3.org/Graphics/SVG/1.1/DTD/svg11.dtd">
<svg version="1.1" id="Capa_1" xmlns="http://www.w3.org/2000/svg" xmlns:xlink="http://www.w3.org/1999/xlink" x="0px" y="0px"
	 width="500px" height="500px" viewBox="0 0 500 500" enable-background="new 0 0 500 500" xml:space="preserve">
<g>
	<g>
		<path fill="#FFFFFF" d="M45.15,407.441h402.77c24.97,0,45.296-20.326,45.296-45.295v-14.638v-6.351
			c5.702-11.881,6.627-26.222,6.627-39.291c0-21.452-2.896-38.501-5.694-55.012l-0.325-1.948
			c-2.839-16.76-5.018-31.024-5.018-49.455l-0.006-1.805c0.006-0.414,0.006-0.842,0.006-1.264l-0.096-6.675l0,0l-0.014-0.65
			l-0.064-4.043v-0.76c-0.012-1.161-0.027-2.378-0.027-3.607v-0.291v-0.601c0-1.188,0.016-2.413,0.027-3.691l0.029-0.678
			c0-1.327,0.035-2.583,0.084-3.855c0.061-2.564,0.186-5.19,0.352-7.893l0.104-1.542l0.027-0.588
			c0.18-2.639,0.395-5.384,0.649-8.217c0.277-3.49,0.623-7.097,1.037-11.169c1.396-13.047-2.157-25.024-9.987-33.725
			c-7.22-8.031-17.643-12.641-28.597-12.641h-51.999h-65.772c-31.722,0-52.276,28.722-64.978,50.326
			c-2.751,4.651-5.115,9.165-7.209,13.131c-1.99,3.795-3.897,7.437-5.979,10.892c-1.194,0.941-2.335,1.999-3.496,3.124
			c-2.489,2.496-5.778,6.22-8.107,11.597c-0.145,0.11-0.27,0.249-0.422,0.374c-4.879,1.256-8.418,3.31-9.909,4.193
			c-5.598,3.201-9.938,7.271-12.953,12.074c0,0.014-0.042,0.041-0.055,0.056c-0.027,0-0.041,0-0.068,0
			c-4.92,0-8.95,1.077-11.548,1.886c-8.543,2.654-14.616,7.292-18.563,12.807c-0.387,0.166-0.781,0.346-1.196,0.504
			c-1.728-0.297-3.484-0.449-5.266-0.449c-4.907,0-8.916,1.1-11.515,1.895c-7.531,2.328-13.497,6.232-17.739,11.666
			c-1.894-0.34-3.85-0.512-5.805-0.512c-4.956,0-8.979,1.084-11.578,1.894c-3.51,1.078-8.991,3.123-14.139,7.843
			c-0.186,0.172-0.352,0.332-0.54,0.498c-3.316-1.147-6.862-1.784-10.546-1.784c-4.928,0-8.963,1.086-11.576,1.907
			c-9.551,2.952-16.607,8.502-20.768,16.471c-0.111,0.186-0.221,0.357-0.297,0.553c-2.44,1.464-4.749,3.054-6.939,4.787
			c-6.546,1.419-12.011,2.552-16.296,3.359c-34.762,6.671-57.23,31.08-57.23,62.173v8.618v7.216v8.652v14.638
			C-0.158,387.115,20.146,407.441,45.15,407.441z"/>
		<g>
			<path fill="none" stroke="#302D24" stroke-width="6.3781" stroke-linecap="round" stroke-linejoin="round" d="M159.964,221.243
				c-1.632,1.382-3.103,2.917-4.409,4.59c-1.894-0.34-3.85-0.512-5.805-0.512c-0.188,0-0.367,0-0.553,0.006"/>
			
				<path fill="none" stroke="#302D24" stroke-width="6.3781" stroke-linecap="round" stroke-linejoin="round" stroke-dasharray="7.2875,7.2875" d="
				M141.954,226.199c-1.472,0.324-2.736,0.691-3.781,1.016c-1.761,0.539-4.021,1.327-6.489,2.57"/>
			<path fill="none" stroke="#302D24" stroke-width="6.3781" stroke-linecap="round" stroke-linejoin="round" d="M128.504,231.609
				c-1.479,0.954-2.992,2.087-4.471,3.449c-0.186,0.172-0.352,0.332-0.54,0.498c-1.989-0.691-4.063-1.196-6.198-1.485"/>
			
				<path fill="none" stroke="#302D24" stroke-width="6.3781" stroke-linecap="round" stroke-linejoin="round" stroke-dasharray="12.7216,12.7216" d="
				M104.635,234.775c-1.252,0.297-2.344,0.615-3.263,0.905c-9.551,2.952-16.607,8.502-20.768,16.471
				c-0.111,0.186-0.221,0.357-0.297,0.553c-2.44,1.464-4.749,3.054-6.939,4.787c-6.546,1.419-12.011,2.552-16.296,3.359
				c-34.762,6.671-57.23,31.08-57.23,62.173v8.618v7.216v8.652v14.638c0,24.969,20.304,45.295,45.308,45.295h402.77
				c24.97,0,45.296-20.326,45.296-45.295v-14.638v-6.351c5.702-11.881,6.627-26.222,6.627-39.291
				c0-21.452-2.896-38.501-5.694-55.012l-0.325-1.948c-2.839-16.76-5.018-31.024-5.018-49.455l-0.006-1.805
				c0.006-0.414,0.006-0.842,0.006-1.264l-0.096-6.675l-0.014-0.65l-0.064-4.043v-0.76c-0.012-1.161-0.027-2.378-0.027-3.607v-0.291
				v-0.601c0-1.188,0.016-2.413,0.027-3.691l0.029-0.678c0-1.327,0.035-2.583,0.084-3.855c0.061-2.564,0.186-5.19,0.352-7.893
				l0.104-1.542l0.027-0.588c0.18-2.639,0.395-5.384,0.649-8.217c0.277-3.49,0.623-7.097,1.037-11.169
				c1.396-13.047-2.157-25.024-9.987-33.725c-7.22-8.031-17.643-12.641-28.597-12.641h-51.999h-65.772
				c-31.722,0-52.276,28.722-64.978,50.326c-2.751,4.651-5.115,9.165-7.209,13.131c-1.99,3.795-3.897,7.437-5.979,10.892
				c-1.194,0.941-2.335,1.999-3.496,3.124c-2.489,2.496-5.778,6.22-8.107,11.597c-0.145,0.11-0.27,0.249-0.422,0.374
				c-4.879,1.256-8.418,3.31-9.909,4.193c-5.598,3.201-9.938,7.271-12.953,12.074c0,0.014-0.042,0.041-0.055,0.056
				c-0.027,0-0.041,0-0.068,0c-4.92,0-8.95,1.077-11.548,1.886c-8.543,2.654-14.616,7.292-18.563,12.807
				c-0.387,0.166-0.781,0.346-1.196,0.504c-1.728-0.297-3.484-0.449-5.266-0.449c-4.907,0-8.916,1.1-11.515,1.895
				c-2.957,0.911-5.666,2.065-8.127,3.461"/>
		</g>
	</g>
	<g>
		<path fill="#92C0BC" stroke="#302D24" stroke-width="6.9691" stroke-miterlimit="10" d="M190.835,335.353v-76.443
			c0,0-94.198,23.358-130.909,30.422c-18.252,3.496-33.678,15.072-33.678,33.691v12.33H190.835z"/>
		<path fill="#92C0BC" stroke="#302D24" stroke-width="6.9691" stroke-miterlimit="10" d="M468.239,301.867
			c0-39.095-11.017-62.807-11.017-106.416c0-16.291-1.244-27.396,2.288-60.417c1.009-9.649-3.953-14.292-9.794-14.292
			c-23.337,0-81.793,0-117.751,0c-14.216,0-27.249,14.368-39.987,36.041c-21.307,36.193-18.515,64.888-186.405,114.993
			c-14.264,4.264-31.071,14.065-31.071,39.497c0,8.072,0,12.725,0,24.079c0,0,285.787,0,378.525,0
			C462.509,335.353,468.239,329.976,468.239,301.867z"/>
		<g>
			<path fill="#FAF07B" stroke="#302D24" stroke-width="6.9691" stroke-miterlimit="10" d="M303.603,145.644v21.825h153.509
				c0.18-5.993,0.574-13.027,1.342-21.825H303.603z"/>
			<path fill="#FAF07B" stroke="#302D24" stroke-width="6.9691" stroke-miterlimit="10" d="M457.111,167.468h-154.6v21.833h154.662
				C457.076,182.485,456.883,175.968,457.111,167.468z"/>
		</g>
		<path fill="#C96AA0" stroke="#302D24" stroke-width="6.9691" stroke-miterlimit="10" d="M137.959,292.925
			c167.89-50.113,161.87-76.719,179.127-115c7.92-17.568,44.957-57.181,80.638-57.181c-23.021,0-47.673,0-65.759,0
			c-14.216,0-27.249,14.368-39.987,36.041c-21.307,36.193-18.515,64.888-186.405,114.993c-14.264,4.264-31.071,14.065-31.071,39.497
			c0,8.072,0,12.725,0,24.079c0,0,12.212,0,32.384,0c0-11.354,0-3.284,0-11.354C106.886,298.578,123.708,297.181,137.959,292.925z"
			/>
		<g>
			<path fill="#FFFFFF" stroke="#302D24" stroke-width="6.9691" stroke-miterlimit="10" d="M26.249,335.116v27.03
				c0,8.99,7.298,16.295,16.289,16.295h402.784c8.991,0,16.311-7.305,16.311-16.295v-27.03H26.249z"/>
			
				<line fill="#6DB5E5" stroke="#302D24" stroke-width="6.9691" stroke-miterlimit="10" x1="26.249" y1="352.056" x2="461.633" y2="352.056"/>
			
				<rect x="26.249" y="335.116" fill="#FAF07B" stroke="#302D24" stroke-width="6.9691" stroke-miterlimit="10" width="435.384" height="8.922"/>
		</g>
		<g>
			<path fill="#302D24" stroke="#302D24" stroke-width="6.9691" stroke-miterlimit="10" d="M114.538,280.366
				c-0.568,0-1.092,0.084-1.604,0.229c-3.152,0.837-5.032,4.111-4.195,7.278c0.711,2.605,3.076,4.402,5.743,4.402
				c0.533,0,1.03-0.062,1.528-0.187l0.18-0.049c3.144-0.911,4.961-4.195,4.07-7.334
				C119.527,282.129,117.178,280.366,114.538,280.366z"/>
			<path fill="#302D24" stroke="#302D24" stroke-width="6.9691" stroke-miterlimit="10" d="M223.159,242.605
				c-0.836,0-1.624,0.132-2.357,0.471l-0.215,0.09c-2.985,1.354-4.277,4.775-2.951,7.802c0.961,2.149,3.109,3.545,5.481,3.545
				c0.821,0,1.63-0.18,2.376-0.511c1.487-0.623,2.591-1.791,3.179-3.255c0.594-1.507,0.553-3.117-0.068-4.561
				C227.659,243.994,225.521,242.605,223.159,242.605z"/>
			<path fill="#302D24" stroke="#302D24" stroke-width="6.9691" stroke-miterlimit="10" d="M151.221,269.186
				c-0.622,0-1.229,0.096-1.913,0.324c-1.5,0.484-2.759,1.528-3.492,2.937c-0.731,1.403-0.87,3.008-0.387,4.542
				c0.789,2.487,3.062,4.132,5.682,4.132c0.594,0,1.202-0.082,1.802-0.249l0.139-0.075c3.125-1.016,4.838-4.367,3.836-7.472
				C156.087,270.857,153.807,269.186,151.221,269.186z"/>
			<path fill="#302D24" stroke="#302D24" stroke-width="6.9691" stroke-miterlimit="10" d="M185.403,257.182
				c-3.082,1.091-4.707,4.504-3.621,7.594c0.85,2.364,3.111,3.947,5.626,3.947c0.663,0,1.333-0.111,1.969-0.312l0.262-0.104
				c3.027-1.154,4.582-4.574,3.435-7.616C191.977,257.713,188.555,256.026,185.403,257.182z"/>
			<path fill="#302D24" stroke="#302D24" stroke-width="6.9691" stroke-miterlimit="10" d="M327.619,134.82
				c-1.119-1.265-2.735-1.983-4.43-1.983c-1.459,0-2.868,0.539-4.057,1.603c-1.189,1.072-1.894,2.517-1.948,4.121
				c-0.07,1.548,0.47,3.054,1.526,4.256c1.128,1.23,2.716,1.928,4.416,1.928c1.507,0,2.938-0.539,4.043-1.528
				c1.183-1.063,1.88-2.529,1.956-4.111C329.229,137.515,328.677,136.002,327.619,134.82z"/>
			<path fill="#302D24" stroke="#302D24" stroke-width="6.9691" stroke-miterlimit="10" d="M304.861,165.202
				c-0.739-0.325-1.513-0.471-2.315-0.471c-2.398,0-4.548,1.417-5.522,3.677c-0.621,1.472-0.648,3.083-0.055,4.574
				c0.574,1.479,1.708,2.62,3.151,3.283c0.753,0.326,1.569,0.478,2.378,0.478c2.363,0,4.506-1.411,5.438-3.587l-1.217-0.525
				l1.279,0.373C309.305,169.983,307.896,166.493,304.861,165.202z"/>
			<path fill="#302D24" stroke="#302D24" stroke-width="6.9691" stroke-miterlimit="10" d="M256.81,224.387
				c-1.19,0-2.351,0.354-3.34,1.016c-1.333,0.879-2.259,2.212-2.577,3.775c-0.332,1.548-0.027,3.15,0.85,4.456
				c1.106,1.694,2.973,2.71,4.978,2.71c1.168,0,2.28-0.338,3.255-0.973l0.207-0.14c2.688-1.851,3.371-5.528,1.554-8.237
				C260.624,225.349,258.785,224.387,256.81,224.387z"/>
			<path fill="#302D24" stroke="#302D24" stroke-width="6.9691" stroke-miterlimit="10" d="M288.6,199.901
				c-1.058-0.829-2.315-1.25-3.621-1.25c-1.866,0-3.587,0.85-4.729,2.329l-0.15,0.213c-1.942,2.614-1.384,6.227,1.243,8.205
				c1.037,0.788,2.254,1.196,3.538,1.196c1.88,0,3.65-0.893,4.797-2.351C291.682,205.652,291.198,201.893,288.6,199.901z"/>
		</g>
		<g>
			<path fill="#FFFFFF" stroke="#302D24" stroke-width="6.9691" stroke-miterlimit="10" d="M118.739,282.393
				c0.829,2.64-0.635,5.404-3.234,6.22l0,0c-2.64,0.822-5.405-0.637-6.227-3.255l-5.702-17.534c-0.821-2.626,1.278-3.67,3.892-4.477
				l0,0c2.619-0.803,4.768-1.101,5.569,1.505L118.739,282.393z"/>
			<path fill="#FFFFFF" stroke="#302D24" stroke-width="6.9691" stroke-miterlimit="10" d="M155.569,273.939
				c0.795,2.612-0.664,5.392-3.275,6.2l0,0c-2.62,0.822-5.399-0.637-6.215-3.249l-5.714-17.554c-0.809-2.604,1.292-3.635,3.91-4.443
				l0,0c2.606-0.822,4.742-1.099,5.551,1.5L155.569,273.939z"/>
			<path fill="#FFFFFF" stroke="#302D24" stroke-width="6.9691" stroke-miterlimit="10" d="M190.615,260.912
				c0.822,2.606-0.649,5.377-3.262,6.214l0,0c-2.626,0.801-5.397-0.657-6.208-3.283l-5.722-17.54
				c-0.822-2.606,1.286-3.65,3.898-4.451l0,0c2.619-0.809,4.754-1.092,5.584,1.507L190.615,260.912z"/>
			<path fill="#FFFFFF" stroke="#302D24" stroke-width="6.9691" stroke-miterlimit="10" d="M227.188,246.151
				c0.809,2.611-0.65,5.39-3.263,6.212l0,0c-2.626,0.809-5.39-0.649-6.205-3.275l-5.723-17.533c-0.795-2.64,1.286-3.67,3.912-4.465
				l0,0c2.626-0.823,4.747-1.106,5.556,1.52L227.188,246.151z"/>
			<path fill="#FFFFFF" stroke="#302D24" stroke-width="6.9691" stroke-miterlimit="10" d="M261.688,226.523
				c1.382,2.371,0.573,5.413-1.784,6.759l0,0c-2.376,1.381-5.404,0.582-6.772-1.81l-9.482-15.813
				c-1.374-2.376,0.437-3.855,2.821-5.239l0,0c2.363-1.368,4.395-2.128,5.771,0.264L261.688,226.523z"/>
			<path fill="#FFFFFF" stroke="#302D24" stroke-width="6.9691" stroke-miterlimit="10" d="M289.712,201.304
				c1.942,1.942,1.942,5.067,0.027,7.009l0,0c-1.941,1.956-5.079,1.968-7.035,0.028l-13.262-12.82
				c-1.956-1.921-0.574-3.828,1.368-5.778l0,0c1.928-1.935,3.69-3.193,5.633-1.243L289.712,201.304z"/>
		</g>
		<path fill="#C96AA0" stroke="#302D24" stroke-width="6.9691" stroke-miterlimit="10" d="M396.452,335.353
			c22.429,0,41.91,0,56.575,0c9.481,0,15.212-5.377,15.212-33.485c0-19.676-2.8-35.453-5.563-51.847
			C447.278,254.853,404.595,273.691,396.452,335.353z"/>
	</g>
</g>
</svg>
