<?xml version="1.0" encoding="utf-8"?>
<!-- Generator: Adobe Illustrator 16.0.0, SVG Export Plug-In . SVG Version: 6.00 Build 0)  -->
<!DOCTYPE svg PUBLIC "-//W3C//DTD SVG 1.1//EN" "http://www.w3.org/Graphics/SVG/1.1/DTD/svg11.dtd">
<svg version="1.1" id="Capa_1" xmlns="http://www.w3.org/2000/svg" xmlns:xlink="http://www.w3.org/1999/xlink" x="0px" y="0px"
	 width="50px" height="50px" viewBox="0 0 50 50" enable-background="new 0 0 50 50" xml:space="preserve">
<g>
	<path fill="#DDC62C" d="M23.459,0C10.504,0,0,10.503,0,23.459c0,5.652,2,10.837,5.33,14.888L2,50l11.896-5.121
		c2.921,1.307,6.155,2.039,9.563,2.039c12.955,0,23.459-10.504,23.459-23.459C46.918,10.503,36.414,0,23.459,0z M22.922,28.275
		c-0.282,0.522-0.672,0.958-1.17,1.306c-0.498,0.349-1.086,0.612-1.764,0.792c-0.678,0.18-1.419,0.27-2.223,0.27
		c-0.84,0-1.623-0.096-2.349-0.287c-0.726-0.192-1.356-0.472-1.89-0.838c-0.534-0.365-0.954-0.818-1.26-1.358
		s-0.459-1.152-0.459-1.836v-0.162h3.51v0.09c0,0.132,0.047,0.272,0.144,0.423s0.24,0.288,0.432,0.414s0.438,0.231,0.738,0.314
		c0.3,0.085,0.654,0.127,1.062,0.127c0.672,0,1.137-0.094,1.395-0.279c0.258-0.186,0.387-0.381,0.387-0.585
		c0-0.3-0.186-0.558-0.558-0.774s-0.984-0.468-1.836-0.756c-0.564-0.18-1.149-0.393-1.755-0.639s-1.161-0.549-1.665-0.909
		c-0.504-0.36-0.921-0.798-1.251-1.314c-0.33-0.516-0.495-1.134-0.495-1.854c0-0.672,0.135-1.275,0.405-1.809
		c0.27-0.534,0.648-0.99,1.134-1.368s1.065-0.669,1.737-0.873c0.672-0.204,1.41-0.306,2.214-0.306c0.816,0,1.575,0.105,2.277,0.315
		c0.702,0.21,1.308,0.513,1.818,0.909s0.912,0.873,1.206,1.431c0.294,0.558,0.441,1.185,0.441,1.881v0.198h-3.51v-0.126
		c0-0.168-0.045-0.342-0.135-0.522c-0.09-0.18-0.225-0.342-0.405-0.486s-0.405-0.261-0.675-0.351s-0.585-0.135-0.945-0.135
		c-0.612,0-1.05,0.099-1.314,0.297c-0.264,0.198-0.396,0.417-0.396,0.657c0,0.276,0.177,0.51,0.531,0.702
		c0.354,0.192,0.951,0.432,1.791,0.72c0.479,0.168,1.026,0.375,1.638,0.621c0.612,0.246,1.185,0.558,1.719,0.936
		c0.534,0.378,0.984,0.84,1.35,1.386c0.366,0.546,0.549,1.203,0.549,1.971C23.345,27.15,23.204,27.754,22.922,28.275z
		 M36.854,23.821c-0.223,0.66-0.562,1.239-1.018,1.737c-0.456,0.499-1.029,0.894-1.719,1.188s-1.503,0.441-2.439,0.441h-2.592v3.186
		h-3.6v-14.04h6.191c0.937,0,1.75,0.147,2.439,0.441c0.689,0.294,1.263,0.69,1.719,1.188c0.456,0.498,0.795,1.071,1.018,1.719
		c0.222,0.648,0.332,1.326,0.332,2.034C37.186,22.459,37.075,23.161,36.854,23.821z"/>
	<path fill="#DDC62C" d="M33.082,20.248c-0.168-0.198-0.384-0.354-0.648-0.468c-0.264-0.114-0.582-0.171-0.953-0.171h-2.395v4.302
		h2.395c0.756,0,1.289-0.207,1.602-0.621s0.469-0.933,0.469-1.557c0-0.276-0.037-0.542-0.108-0.801
		C33.37,20.674,33.25,20.446,33.082,20.248z"/>
</g>
</svg>
