<?xml version="1.0" encoding="utf-8"?>
<!-- Generator: Adobe Illustrator 16.0.0, SVG Export Plug-In . SVG Version: 6.00 Build 0)  -->
<!DOCTYPE svg PUBLIC "-//W3C//DTD SVG 1.1//EN" "http://www.w3.org/Graphics/SVG/1.1/DTD/svg11.dtd">
<svg version="1.1" id="Capa_1" xmlns="http://www.w3.org/2000/svg" xmlns:xlink="http://www.w3.org/1999/xlink" x="0px" y="0px"
	 width="100px" height="100px" viewBox="0 0 100 100" enable-background="new 0 0 100 100" xml:space="preserve">
<g>
	<g>
		<path fill="#FF58BB" d="M54.068,0.406c-36.89,7.187-42.362,7.049-41.013,15.293c2.292,14,7.603,39.872,10.964,53.12
			c2.063,8.131,5.076,28.569,8.035,30.979c2.502,2.374,18.102-2.081,22.696-3.062c10.646-2.275,13.845-2.233,27.897-6.32
			c3.136-0.911,1.636-6.481-2.302-24.057c-2.622-11.709-4.919-22.97-7.72-34.674C64.164-3.642,68.914-2.471,54.068,0.406"/>
		<g>
			<path fill="#524570" d="M53.901-0.201C43.085,1.901,32.083,3.551,21.418,6.354c-2.957,0.777-7.643,1.905-8.811,5.229
				c-0.438,1.248-0.419,2.562-0.223,3.857c0.79,5.212,1.813,10.395,2.809,15.57c2.24,11.644,4.666,23.262,7.433,34.792
				c2.249,9.374,3.715,18.947,6.255,28.248c0.5,1.828,1.136,5.09,2.855,6.291c2.219,1.551,5.774,0.657,8.231,0.294
				c8.904-1.317,17.724-3.852,26.569-5.564c5.496-1.063,10.899-2.501,16.277-4.048c1.244-0.358,1.919-1.461,2.065-2.7
				c0.384-3.239-0.555-6.692-1.201-9.834c-1.476-7.176-3.186-14.306-4.744-21.463c-3.128-14.363-6.623-28.651-9.549-43.056
				c-0.828-4.077-1.028-11.737-4.647-14.647C62.062-2.83,56.759-0.761,53.901-0.201c-0.796,0.156-0.458,1.368,0.334,1.213
				c3.945-0.773,9.358-3.149,11.246,1.723c3.088,7.967,3.81,17.299,5.709,25.592c3.433,14.991,6.716,30.013,10.081,45.019
				c0.983,4.388,2.203,8.886,2.43,13.395c0.248,4.918-8.275,5.052-11.928,5.926c-8.756,2.095-17.655,3.673-26.444,5.65
				c-2.817,0.634-11.157,3.443-13.306,0.481c-2.475-3.41-2.991-9.139-3.85-13.135c-4.606-21.435-9.63-42.788-13.521-64.373
				c-1.245-6.904-2.387-10.704,5.047-13.128c11.074-3.611,23.139-4.937,34.536-7.15C55.031,0.857,54.693-0.354,53.901-0.201
				L53.901-0.201z"/>
		</g>
	</g>
	<g>
		<g>
			<g>
				<path fill="#7D61BD" d="M52.819,8.7c-30.023,6.064-34.395,6.376-33.886,10.295c0.861,6.655,3.317,18.88,5.088,25.093
					c1.087,3.814,2.076,13.554,4.277,14.523c1.838,0.978,14.628-2.272,18.376-3.068c8.678-1.845,11.232-2.047,22.764-5.011
					c2.568-0.665,1.758-3.271-0.172-11.551c-1.287-5.517-2.34-10.838-3.772-16.343C61.175,6.032,64.896,6.272,52.819,8.7"/>
				<g>
					<path fill="#524570" d="M52.642,8.055C43,9.999,33.118,11.481,23.646,14.179c-2.219,0.631-5.354,1.549-5.419,4.325
						c-0.097,4.09,1.332,8.655,2.116,12.645c0.987,5.022,2.354,9.937,3.466,14.924c0.893,4.002,1.153,8.376,3.093,12.056
						c1.05,1.992,3.894,1.319,5.646,1.047c8.606-1.338,17.159-3.519,25.687-5.296c2.63-0.548,5.241-1.173,7.85-1.811
						c1.339-0.327,3.671-0.389,4.729-1.479c1.773-1.828,0.625-5.078,0.164-7.209c-2.409-11.138-4.682-22.477-7.622-33.483
						C62.025,4.919,56.228,7.326,52.642,8.055c-0.846,0.172-0.487,1.462,0.355,1.291c2.337-0.475,5.195-1.534,7.598-1.104
						c1.795,0.322,2.023,4.402,2.284,5.732c1.956,9.975,4.542,19.852,6.808,29.763c0.345,1.508,0.663,3.026,0.702,4.577
						c0.057,2.32-6.05,2.805-7.651,3.188c-3.349,0.8-6.725,1.478-10.103,2.145c-7.065,1.395-14.073,3.394-21.216,4.341
						c-4.134,0.548-4.432-3.007-5.16-6.359c-0.718-3.303-1.31-6.595-2.171-9.866c-1.08-4.105-1.925-8.277-2.743-12.44
						c-0.687-3.498-1.858-7.468-1.773-11.05c0.06-2.525,6.237-3.302,7.889-3.696c8.445-2.018,17.028-3.515,25.537-5.23
						C53.843,9.175,53.484,7.885,52.642,8.055L52.642,8.055z"/>
				</g>
			</g>
			<g>
				<path fill="#92D8DD" d="M52.006,11.851c-26.664,5.39-30.541,5.677-30.107,9.084c0.738,5.786,2.871,16.408,4.417,21.806
					c0.95,3.312,1.792,11.782,3.739,12.613c1.627,0.846,12.992-2.033,16.315-2.738c7.71-1.637,9.981-1.824,20.223-4.448
					c2.283-0.585,1.576-2.85-0.104-10.044c-1.122-4.793-2.041-9.417-3.288-14.198C59.435,9.496,62.734,9.69,52.006,11.851"/>
				<g>
					<path fill="#524570" d="M51.828,11.205c-8.67,1.749-17.593,3.048-26.094,5.54c-1.914,0.561-4.412,1.38-4.535,3.713
						c-0.186,3.503,1.148,7.573,1.816,10.988c0.867,4.433,2.088,8.767,3.059,13.171c0.758,3.434,1.024,7.11,2.632,10.289
						c0.871,1.722,3.029,1.272,4.577,1.087c7.509-0.902,15.015-3.076,22.426-4.585c3.618-0.737,9.071-1.053,12.122-3.11
						c1.41-0.951,0.808-3.346,0.583-4.681c-1.716-10.196-4.44-20.483-6.918-30.527C60.34,8.396,55.247,10.508,51.828,11.205
						c-0.846,0.172-0.487,1.462,0.355,1.291c1.888-0.385,5.146-1.681,7.038-0.874c1.402,0.599,1.597,4.68,1.834,5.888
						c1.664,8.484,3.939,16.875,5.834,25.313c0.282,1.257,1.31,4.057-0.475,4.698c-2.028,0.729-4.298,1.077-6.396,1.572
						c-2.936,0.692-5.896,1.274-8.854,1.859c-6.246,1.235-12.449,3.048-18.776,3.808c-4.626,0.556-5.073-10.792-5.993-14.304
						c-0.934-3.563-1.661-7.182-2.368-10.795c-0.542-2.769-1.891-6.64-1.47-9.465c0.31-2.073,5.406-2.686,6.895-3.042
						c7.516-1.8,15.158-3.131,22.731-4.659C53.029,12.325,52.671,11.035,51.828,11.205L51.828,11.205z"/>
				</g>
			</g>
		</g>
		<g>
			<g>
				<path fill="#FACB54" d="M48.541,40.31c-5.098,1.028-5.841,1.08-5.754,1.756c0.153,1.15,0.576,3.261,0.88,4.334
					c0.19,0.658,0.364,2.34,0.737,2.51c0.31,0.169,2.485-0.384,3.123-0.521c1.471-0.313,1.904-0.344,3.864-0.85
					c0.439-0.113,0.298-0.563-0.037-1.993c-0.221-0.953-0.403-1.875-0.648-2.824C49.959,39.853,50.591,39.896,48.541,40.31"/>
				<g>
					<path fill="#524570" d="M48.374,39.704c-1.731,0.348-3.595,0.55-5.264,1.153c-0.543,0.196-0.999,0.585-0.952,1.209
						c0.141,1.877,0.767,3.701,1.121,5.54c0.248,1.289,0.545,2.134,1.983,1.898c1.734-0.284,3.475-0.691,5.188-1.084
						c1.702-0.391,2.024-0.781,1.641-2.487c-0.291-1.296-0.584-2.592-0.903-3.882c-0.154-0.626-0.175-1.368-0.466-1.952
						C50.256,39.168,49.177,39.539,48.374,39.704c-0.794,0.163-0.457,1.375,0.334,1.213c1.14-0.234,0.94-0.08,1.168,1.028
						c0.298,1.446,0.664,2.886,1.002,4.323c0.271,1.152-1.811,1.172-2.663,1.34c-1.141,0.225-2.272,0.563-3.429,0.698
						c-0.259,0.03-1.343-5.873-1.377-6.325c0.015,0.199,0.761-0.13,1.104-0.21c1.388-0.327,2.797-0.573,4.195-0.854
						C49.502,40.757,49.165,39.545,48.374,39.704L48.374,39.704z"/>
				</g>
			</g>
			<g>
				<path fill="#FACB54" d="M58.451,38.213c-5.097,1.028-5.84,1.08-5.753,1.757c0.149,1.15,0.577,3.26,0.879,4.332
					c0.188,0.66,0.365,2.345,0.738,2.51c0.311,0.17,2.486-0.385,3.12-0.518c1.473-0.313,1.905-0.345,3.867-0.851
					c0.434-0.114,0.295-0.565-0.039-1.995c-0.22-0.951-0.402-1.871-0.649-2.821C59.87,37.758,60.502,37.801,58.451,38.213"/>
				<g>
					<path fill="#524570" d="M58.284,37.607c-1.731,0.348-3.594,0.55-5.263,1.153c-0.544,0.197-0.998,0.586-0.952,1.21
						c0.141,1.877,0.766,3.7,1.12,5.539c0.247,1.289,0.547,2.132,1.984,1.897c1.733-0.284,3.474-0.688,5.187-1.082
						c1.703-0.391,2.021-0.783,1.64-2.489c-0.289-1.296-0.586-2.591-0.904-3.88c-0.154-0.626-0.174-1.367-0.465-1.952
						C60.168,37.073,59.088,37.443,58.284,37.607c-0.794,0.163-0.457,1.375,0.334,1.213c1.14-0.233,0.94-0.079,1.167,1.03
						c0.297,1.445,0.666,2.884,1.002,4.32c0.271,1.155-1.809,1.174-2.663,1.342c-1.14,0.225-2.271,0.561-3.426,0.695
						c-0.263,0.031-1.344-5.869-1.378-6.322c0.015,0.197,0.763-0.131,1.104-0.211c1.388-0.327,2.797-0.573,4.194-0.854
						C59.413,38.66,59.076,37.448,58.284,37.607L58.284,37.607z"/>
				</g>
			</g>
			<g>
				<path fill="#FACB54" d="M46.446,30.398c-5.099,1.027-5.842,1.079-5.755,1.756c0.151,1.15,0.575,3.261,0.881,4.334
					c0.189,0.657,0.36,2.341,0.735,2.509c0.312,0.17,2.484-0.384,3.123-0.519c1.475-0.314,1.905-0.346,3.861-0.85
					c0.44-0.114,0.303-0.565-0.033-1.996c-0.223-0.952-0.405-1.871-0.649-2.821C47.862,29.943,48.494,29.985,46.446,30.398"/>
				<g>
					<path fill="#524570" d="M46.279,29.792c-1.732,0.348-3.596,0.55-5.265,1.153c-0.544,0.196-0.999,0.586-0.953,1.21
						c0.14,1.878,0.77,3.699,1.121,5.54c0.246,1.29,0.544,2.133,1.982,1.898c1.734-0.284,3.474-0.689,5.186-1.083
						c1.7-0.391,2.024-0.783,1.643-2.489c-0.29-1.296-0.586-2.591-0.905-3.88c-0.155-0.626-0.175-1.367-0.466-1.953
						C48.161,29.258,47.082,29.627,46.279,29.792c-0.794,0.163-0.457,1.375,0.334,1.213c1.139-0.234,0.938-0.078,1.166,1.03
						c0.297,1.445,0.665,2.884,1.003,4.321c0.271,1.152-1.811,1.173-2.663,1.341c-1.141,0.225-2.272,0.562-3.429,0.697
						c-0.259,0.03-1.343-5.872-1.376-6.324c0.015,0.198,0.763-0.131,1.104-0.211c1.388-0.327,2.798-0.573,4.196-0.854
						C47.408,30.845,47.07,29.633,46.279,29.792L46.279,29.792z"/>
				</g>
			</g>
			<g>
				<path fill="#FACB54" d="M38.627,42.407c-5.094,1.027-5.836,1.079-5.752,1.757c0.152,1.149,0.578,3.257,0.879,4.333
					c0.19,0.659,0.364,2.34,0.739,2.508c0.311,0.17,2.485-0.383,3.12-0.518c1.471-0.315,1.907-0.347,3.863-0.851
					c0.439-0.114,0.301-0.565-0.036-1.995c-0.22-0.952-0.404-1.872-0.649-2.822C40.048,41.95,40.68,41.994,38.627,42.407"/>
				<g>
					<path fill="#524570" d="M38.46,41.8c-1.73,0.348-3.593,0.55-5.26,1.153c-0.544,0.197-0.998,0.586-0.954,1.21
						c0.133,1.875,0.767,3.702,1.12,5.54c0.248,1.289,0.548,2.131,1.985,1.896c1.733-0.283,3.473-0.69,5.185-1.083
						c1.701-0.39,2.024-0.782,1.641-2.488c-0.291-1.296-0.586-2.591-0.904-3.881c-0.154-0.626-0.174-1.368-0.465-1.952
						C40.345,41.266,39.264,41.636,38.46,41.8c-0.794,0.163-0.458,1.375,0.334,1.213c1.141-0.233,0.941-0.08,1.169,1.029
						c0.296,1.445,0.663,2.885,1.002,4.322c0.272,1.152-1.812,1.172-2.664,1.341c-1.14,0.226-2.271,0.562-3.426,0.696
						c-0.263,0.031-1.346-5.869-1.378-6.322c0.014,0.197,0.766-0.132,1.104-0.212c1.387-0.327,2.795-0.573,4.192-0.854
						C39.589,42.854,39.252,41.642,38.46,41.8L38.46,41.8z"/>
				</g>
			</g>
			<g>
				<path fill="#FACB54" d="M34.226,21.593c-5.095,1.026-5.838,1.078-5.751,1.756c0.149,1.149,0.574,3.259,0.877,4.334
					c0.19,0.657,0.363,2.339,0.737,2.508c0.313,0.171,2.486-0.385,3.123-0.518c1.471-0.313,1.906-0.346,3.863-0.852
					c0.437-0.112,0.297-0.563-0.036-1.995c-0.22-0.951-0.406-1.871-0.649-2.821C35.645,21.136,36.277,21.18,34.226,21.593"/>
				<g>
					<path fill="#524570" d="M34.059,20.987c-1.73,0.348-3.593,0.549-5.261,1.152c-0.544,0.197-0.999,0.586-0.952,1.21
						c0.14,1.877,0.765,3.699,1.118,5.539c0.248,1.289,0.546,2.133,1.984,1.897c1.734-0.284,3.474-0.688,5.187-1.083
						c1.702-0.392,2.02-0.782,1.64-2.488c-0.289-1.296-0.585-2.591-0.904-3.881c-0.154-0.626-0.175-1.367-0.465-1.952
						C35.943,20.452,34.862,20.822,34.059,20.987c-0.794,0.163-0.457,1.375,0.334,1.213c1.141-0.234,0.94-0.08,1.168,1.029
						c0.297,1.445,0.667,2.884,1.002,4.321c0.27,1.153-1.809,1.173-2.663,1.342c-1.14,0.225-2.272,0.561-3.427,0.696
						c-0.264,0.03-1.342-5.87-1.375-6.323c0.015,0.196,0.762-0.132,1.103-0.212c1.387-0.327,2.796-0.573,4.193-0.853
						C35.188,22.04,34.85,20.828,34.059,20.987L34.059,20.987z"/>
				</g>
			</g>
		</g>
	</g>
	<g>
		<g>
			<g>
				<path fill="#7D61BD" d="M54.406,59.624c-7.877,1.63-9.007,1.786-8.981,2.312c0.046,0.891,0.352,2.504,0.643,3.309
					c0.178,0.495,0.174,1.806,0.714,1.877c0.448,0.089,3.819-0.695,4.8-0.903c2.282-0.483,2.946-0.582,5.984-1.294
					c0.68-0.158,0.539-0.496,0.264-1.58c-0.184-0.723-0.315-1.424-0.539-2.145C56.624,59.036,57.575,58.972,54.406,59.624"/>
				<g>
					<path fill="#524570" d="M54.229,58.979c-2.434,0.503-4.877,0.969-7.298,1.532c-0.612,0.143-1.483,0.274-1.929,0.775
						c-0.804,0.902,0.14,3.223,0.42,4.136c0.391,1.275,0.356,2.576,2.04,2.315c2.023-0.313,4.018-0.82,6.022-1.232
						c1.333-0.273,4.786-0.278,5.218-1.846c0.367-1.337-0.724-4.017-1.172-5.349C57.098,58.023,55.073,58.803,54.229,58.979
						c-0.846,0.176-0.486,1.466,0.355,1.291c1.562-0.324,1.623-0.8,1.925,0.609c0.436,2.035,1.249,3.329-1.321,3.901
						c-2.389,0.532-4.79,1.045-7.191,1.516c-0.734,0.144-0.929,0.423-1.111-0.376c-0.161-0.707-0.343-1.403-0.512-2.109
						c-0.105-0.442,0.086-2.152-0.376-1.633c0.079-0.089,0.382-0.136,0.487-0.168c2.62-0.807,5.421-1.188,8.1-1.74
						C55.43,60.095,55.07,58.805,54.229,58.979L54.229,58.979z"/>
				</g>
			</g>
			<g>
				<path fill="#7D61BD" d="M68.777,56.585c-7.876,1.628-9.01,1.785-8.979,2.311c0.045,0.89,0.349,2.504,0.64,3.31
					c0.179,0.494,0.176,1.803,0.713,1.877c0.449,0.088,3.822-0.696,4.803-0.905c2.281-0.483,2.944-0.579,5.983-1.292
					c0.681-0.161,0.542-0.498,0.266-1.579c-0.186-0.724-0.315-1.429-0.535-2.146C70.992,55.997,71.944,55.932,68.777,56.585"/>
				<g>
					<path fill="#524570" d="M68.6,55.939c-2.434,0.502-4.878,0.968-7.298,1.531c-0.61,0.142-1.484,0.273-1.928,0.775
						c-0.802,0.905,0.138,3.221,0.418,4.137c0.391,1.274,0.357,2.576,2.039,2.314c2.024-0.313,4.019-0.822,6.024-1.232
						c1.333-0.273,4.786-0.276,5.218-1.847c0.368-1.337-0.722-4.017-1.173-5.347C71.465,54.984,69.448,55.763,68.6,55.939
						c-0.845,0.176-0.486,1.466,0.355,1.291c1.561-0.324,1.622-0.799,1.929,0.609c0.442,2.035,1.237,3.331-1.327,3.901
						c-2.388,0.531-4.789,1.044-7.189,1.515c-0.737,0.145-0.929,0.423-1.11-0.376c-0.161-0.707-0.344-1.403-0.512-2.109
						c-0.104-0.439,0.088-2.158-0.376-1.633c0.078-0.09,0.381-0.136,0.486-0.168c2.619-0.807,5.421-1.187,8.1-1.739
						C69.801,57.056,69.441,55.766,68.6,55.939L68.6,55.939z"/>
				</g>
			</g>
			<g>
				<path fill="#7D61BD" d="M39.315,62.819c-7.875,1.626-9.007,1.784-8.979,2.311c0.043,0.889,0.348,2.501,0.637,3.308
					c0.18,0.494,0.177,1.804,0.715,1.878c0.447,0.086,3.823-0.699,4.805-0.906c2.279-0.484,2.941-0.578,5.982-1.291
					c0.679-0.16,0.54-0.497,0.263-1.582c-0.186-0.724-0.313-1.427-0.535-2.142C41.533,62.229,42.487,62.165,39.315,62.819"/>
				<g>
					<path fill="#524570" d="M39.138,62.174c-2.433,0.502-4.877,0.967-7.297,1.53c-0.611,0.142-1.484,0.274-1.928,0.775
						c-0.801,0.905,0.136,3.219,0.415,4.136c0.388,1.275,0.362,2.577,2.041,2.314c2.024-0.315,4.019-0.822,6.025-1.232
						c1.334-0.273,4.785-0.274,5.217-1.846c0.368-1.336-0.722-4.016-1.17-5.348C42.007,61.217,39.983,61.998,39.138,62.174
						c-0.845,0.176-0.487,1.466,0.355,1.291c1.562-0.325,1.625-0.802,1.928,0.609c0.438,2.032,1.241,3.33-1.326,3.9
						c-2.389,0.53-4.79,1.041-7.191,1.514c-0.737,0.145-0.928,0.424-1.111-0.376c-0.162-0.706-0.343-1.403-0.511-2.109
						c-0.104-0.439,0.089-2.154-0.374-1.632c0.079-0.09,0.381-0.136,0.486-0.168c2.619-0.808,5.42-1.187,8.098-1.738
						C40.338,63.291,39.98,62,39.138,62.174L39.138,62.174z"/>
				</g>
			</g>
		</g>
		<g>
			<path fill="#FACB54" d="M38.019,81.898c-3.601,1.234-3.906,4.889-2.955,7.172c1.171,2.609,2.944,3.399,6.526,2.637
				C48.98,90.142,44.658,79.007,38.019,81.898"/>
			<g>
				<path fill="#524570" d="M37.852,81.292c-3.579,1.408-4.759,5.136-3.117,8.537c1.666,3.45,6.407,3.436,9.278,1.533
					c2.404-1.594,2.443-4.769,1.338-7.142C44.002,81.327,40.763,80.133,37.852,81.292c-0.744,0.296-0.42,1.513,0.334,1.213
					c4.037-1.607,8.327,2.901,6.068,6.83c-1.291,2.244-5.667,2.736-7.525,1.128c-2.67-2.311-1.634-6.742,1.457-7.958
					C38.931,82.211,38.607,80.995,37.852,81.292L37.852,81.292z"/>
			</g>
		</g>
		<g>
			<g>
				<path fill="#FACB54" d="M62.901,69.419c-2.616,0.903-2.824,3.615-2.123,5.313c0.858,1.94,2.152,2.534,4.75,1.979
					C70.894,75.576,67.716,67.292,62.901,69.419"/>
				<g>
					<path fill="#524570" d="M62.734,68.813c-2.749,1.092-3.578,3.967-2.343,6.564c1.244,2.616,4.83,2.699,7.004,1.208
						c1.863-1.278,1.834-3.782,0.931-5.619C67.286,68.854,64.896,67.942,62.734,68.813c-0.742,0.299-0.419,1.516,0.334,1.213
						c2.933-1.181,5.879,2.3,4.14,5.009c-1.019,1.586-4.271,1.731-5.387,0.282c-1.362-1.768-0.883-4.445,1.247-5.291
						C63.813,69.729,63.488,68.514,62.734,68.813L62.734,68.813z"/>
				</g>
			</g>
			<g>
				<path fill="#FACB54" d="M72.374,75.015c-2.615,0.903-2.825,3.614-2.127,5.312c0.859,1.939,2.155,2.532,4.752,1.979
					C80.366,81.169,77.19,72.89,72.374,75.015"/>
				<g>
					<path fill="#524570" d="M72.207,74.408c-2.745,1.09-3.583,3.967-2.347,6.563c1.245,2.615,4.833,2.699,7.007,1.208
						c1.863-1.278,1.836-3.781,0.932-5.618C76.76,74.449,74.369,73.539,72.207,74.408c-0.742,0.299-0.419,1.516,0.334,1.213
						c2.933-1.18,5.88,2.298,4.139,5.007c-1.02,1.587-4.271,1.731-5.39,0.283c-1.363-1.767-0.876-4.445,1.251-5.29
						C73.285,75.325,72.961,74.108,72.207,74.408L72.207,74.408z"/>
				</g>
			</g>
			<g>
				<path fill="#FACB54" d="M62.356,79.897c-2.617,0.899-2.824,3.61-2.124,5.308c0.855,1.943,2.15,2.535,4.748,1.981
					C70.35,86.051,67.169,77.771,62.356,79.897"/>
				<g>
					<path fill="#524570" d="M62.189,79.291c-2.753,1.089-3.574,3.962-2.344,6.561c1.239,2.619,4.83,2.699,7.003,1.209
						c1.863-1.277,1.836-3.78,0.932-5.618C66.741,79.331,64.351,78.421,62.189,79.291c-0.742,0.299-0.419,1.516,0.334,1.213
						c2.932-1.181,5.879,2.298,4.139,5.006c-1.02,1.585-4.272,1.732-5.388,0.281c-1.36-1.768-0.883-4.444,1.249-5.287
						C63.269,80.209,62.944,78.993,62.189,79.291L62.189,79.291z"/>
				</g>
			</g>
		</g>
	</g>
</g>
</svg>
